<svg id="b141539b-ff2a-404b-a97f-84650a616b16" data-name="Layer 2" xmlns="http://www.w3.org/2000/svg" xmlns:xlink="http://www.w3.org/1999/xlink" viewBox="0 0 568 171.36"><defs><style>.b013ed18-9ed5-48b9-8d71-f19b359e900d{fill:url(#f1601006-1e8f-42b2-93db-0a55543d678a);}.a4271294-41b6-418b-b321-ab924f3dba45{font-size:157px;font-family:HelveticaNeueLTPro-Hv, Helvetica Neue LT Pro;letter-spacing:0.02em;}.b2d8545c-8358-4dae-80dc-2a8b1497c1dc{fill:url(#aca7c040-ec93-4b02-bccf-fc20c1a8be24);}</style><linearGradient id="f1601006-1e8f-42b2-93db-0a55543d678a" x1="87.55" y1="66.05" x2="619.46" y2="66.05" gradientUnits="userSpaceOnUse"><stop offset="0" stop-color="#5c5c5c"/><stop offset="0.38" stop-color="#5e5e5e"/><stop offset="0.53" stop-color="#656565"/><stop offset="0.64" stop-color="#717171"/><stop offset="0.73" stop-color="#828282"/><stop offset="0.81" stop-color="#999"/><stop offset="0.88" stop-color="#b5b5b5"/><stop offset="0.94" stop-color="#d6d6d6"/><stop offset="0.99" stop-color="#fbfbfb"/><stop offset="1" stop-color="#fff"/></linearGradient><linearGradient id="aca7c040-ec93-4b02-bccf-fc20c1a8be24" x1="353.5" y1="124.45" x2="353.5" y2="7.64" gradientUnits="userSpaceOnUse"><stop offset="0" stop-color="#292929"/><stop offset="0.06" stop-color="#353535"/><stop offset="0.38" stop-color="#717171"/><stop offset="0.66" stop-color="#9d9d9d"/><stop offset="0.87" stop-color="#b8b8b8"/><stop offset="1" stop-color="#c2c2c2"/></linearGradient></defs><title>EvolveText</title><path class="b013ed18-9ed5-48b9-8d71-f19b359e900d" d="M145.48,10q17.58,0,28,8.71T184,41.56a33.88,33.88,0,0,1-4.4,17.11,24.58,24.58,0,0,1-13.19,11V70q15.22,4.09,16.64,30.3.8,17.91,4.4,21.83H158.51q-2.35-3.61-3-15.55-1.09-15.22-5.1-20.25t-11.07-5H116.75V122.1H87.55V10Zm-3.77,48.67q6.12,0,9.58-3.3t3.45-9.73q0-6-4-9.11a16.19,16.19,0,0,0-10.28-3.14H116.75V58.67Z" transform="translate(-77.5 12.53)"/><path class="b013ed18-9ed5-48b9-8d71-f19b359e900d" d="M234,10V122.1H204.82V10Z" transform="translate(-77.5 12.53)"/><path class="b013ed18-9ed5-48b9-8d71-f19b359e900d" d="M347.06,10V35.12H313.62v87h-29.2v-87H251V10Z" transform="translate(-77.5 12.53)"/><path class="b013ed18-9ed5-48b9-8d71-f19b359e900d" d="M407,10l19.31,74.73h.31L446,10h43V122.1H461.52V37h-.32l-23.55,85.1H415.36L391.81,37h-.31v85.1H364V10Z" transform="translate(-77.5 12.53)"/><path class="b013ed18-9ed5-48b9-8d71-f19b359e900d" d="M564.19,7.64q24.81,0,40,16.1t15.23,42.31q0,26.37-15.31,42.39t-40,16q-24.65,0-40-16.17T508.93,66.05q0-25.9,15-42.16T564.19,7.64ZM538.13,66.05q0,15.23,6.91,24.25t19.15,9q12.25,0,19.16-9t6.91-24.25q0-15.39-6.83-24.34t-19.39-9q-12.09,0-19,9T538.13,66.05Z" transform="translate(-77.5 12.53)"/><text class="a4271294-41b6-418b-b321-ab924f3dba45" transform="translate(0 134.63)">RITMO</text><path class="b2d8545c-8358-4dae-80dc-2a8b1497c1dc" d="M145.48,10q17.58,0,28,8.71T184,41.56a33.88,33.88,0,0,1-4.4,17.11,24.58,24.58,0,0,1-13.19,11V70q15.22,4.09,16.64,30.3.8,17.91,4.4,21.83H158.51q-2.35-3.61-3-15.55-1.09-15.22-5.1-20.25t-11.07-5H116.75V122.1H87.55V10Zm-3.77,48.67q6.12,0,9.58-3.3t3.45-9.73q0-6-4-9.11a16.19,16.19,0,0,0-10.28-3.14H116.75V58.67Z" transform="translate(-77.5 12.53)"/><path class="b2d8545c-8358-4dae-80dc-2a8b1497c1dc" d="M234,10V122.1H204.82V10Z" transform="translate(-77.5 12.53)"/><path class="b2d8545c-8358-4dae-80dc-2a8b1497c1dc" d="M347.06,10V35.12H313.62v87h-29.2v-87H251V10Z" transform="translate(-77.5 12.53)"/><path class="b2d8545c-8358-4dae-80dc-2a8b1497c1dc" d="M407,10l19.31,74.73h.31L446,10h43V122.1H461.52V37h-.32l-23.55,85.1H415.36L391.81,37h-.31v85.1H364V10Z" transform="translate(-77.5 12.53)"/><path class="b2d8545c-8358-4dae-80dc-2a8b1497c1dc" d="M564.19,7.64q24.81,0,40,16.1t15.23,42.31q0,26.37-15.31,42.39t-40,16q-24.65,0-40-16.17T508.93,66.05q0-25.9,15-42.16T564.19,7.64ZM538.13,66.05q0,15.23,6.91,24.25t19.15,9q12.25,0,19.16-9t6.91-24.25q0-15.39-6.83-24.34t-19.39-9q-12.09,0-19,9T538.13,66.05Z" transform="translate(-77.5 12.53)"/></svg>